[Header]
FileType HTR
DataType HTRS
FileVersion 1
NumSegments 22
NumFrames 7
DataFrameRate 24
EulerRotationOrder ZYX
CalibrationUnits mm
RotationUnits Degrees
GlobalAxisofGravity Y
BoneLengthAxis Y
ScaleFactor 1.0
[SegmentNames&Hierarchy]
reference	GLOBAL
Hips	reference
Spine	Hips
Spine1	Spine
Neck	Spine1
Head	Neck
LeftShoulder	Spine1
LeftArm	LeftShoulder
LeftForeArm	LeftArm
LeftHand	LeftForeArm
RightShoulder	Spine1
RightArm	RightShoulder
RightForeArm	RightArm
RightHand	RightForeArm
LeftUpLeg	Hips
LeftLeg	LeftUpLeg
LeftFoot	LeftLeg
LeftToeBase	LeftFoot
RightUpLeg	Hips
RightLeg	RightUpLeg
RightFoot	RightLeg
RightToeBase	RightFoot
[BasePosition]
reference	0	0	0	0	0	0	1
Hips	0	0	0	0	0	0	1
Spine	0	0	0	0	-0	90	1
Spine1	0	0	0	0	0	0	1
Neck	0	0	0	-7.352430803	-7.352430803	90	1
Head	0	0	0	0	-0	90	1
LeftShoulder	0	0	0	0	0	0	1
LeftArm	0	0	0	0	0	0	1
LeftForeArm	0	0	0	0	0	0	1
LeftHand	0	0	0	0	0	0	1
RightShoulder	0	0	0	0	-0	180	1
RightArm	0	0	0	0	-0	180	1
RightForeArm	0	0	0	0	-0	180	1
RightHand	0	0	0	0	-0	180	1
LeftUpLeg	0	0	0	0	-0	-90	1
LeftLeg	0	0	0	0	-0	-90	1
LeftFoot	0	0	0	66.57150701	-66.57150701	-90	1
LeftToeBase	0	0	0	0	-90	0	1
RightUpLeg	0	0	0	0	-0	-90	1
RightLeg	0	0	0	0	-0	-90	1
RightFoot	0	0	0	66.57150701	-66.57150701	-90	1
RightToeBase	0	0	0	0	-90	0	1
[reference]
65	0	0	0	0	-0	0	1.0
66	0	0	0	0	-0	0	1.0
67	0	0	0	0	-0	0	1.0
68	0	0	0	0	-0	0	1.0
69	0	0	0	0	-0	0	1.0
70	0	0	0	0	-0	0	1.0
71	0	0	0	0	-0	0	1.0
[Hips]
65	4.492341042	8.598352432	6.724975586	-3.306220055	-139.6784058	2.8288064	1.0
66	4.581363678	8.58556366	6.977058411	-1.985418081	-138.6456757	1.776791334	1.0
67	4.696262836	8.570827484	7.29253006	-0.341796875	-138.4223633	0.8345031738	1.0
68	4.817685127	8.52039814	7.66261816	1.646725416	-138.9461212	-0.05740893632	1.0
69	4.934068203	8.337544441	8.025491714	2.890729427	-139.6224518	-1.143114924	1.0
70	5.037484646	8.171258926	8.351270676	4.584079742	-140.8161621	-2.32830143	1.0
71	5.137045383	8.16380024	8.607962608	5.684919357	-141.717926	-3.429467678	1.0
[Spine]
65	0	0.7478299737	0	-7.146902561	1.491426706	-87.7431488	1.0
66	0	0.7478299737	0	-6.636380196	1.368973494	-88.92057037	1.0
67	0	0.7478299737	0	-5.839977741	1.688597441	-88.77695465	1.0
68	0	0.7478299737	0	-4.953438759	2.345341206	-88.30317688	1.0
69	0	0.7478299737	0	-4.55554533	2.485152006	-88.37772369	1.0
70	0	0.7478299737	0	-5.016376972	2.466543913	-88.85688782	1.0
71	0	0.7478299737	0	-6.366292477	3.030988216	-90.29644775	1.0
[Spine1]
65	0	2.049309969	0	6.430642605	0.4195396602	0.5146233439	1.0
66	0	2.049309969	0	5.209028244	0.4264625013	-0.1330819577	1.0
67	0	2.049309969	0	4.867725372	0.573430419	-1.150654912	1.0
68	0	2.049309969	0	4.217187881	0.8907617927	-3.668176889	1.0
69	0	2.049309969	0	5.455643177	1.036504507	-4.839842319	1.0
70	0	2.049309969	0	7.347978592	1.246384144	-6.080752373	1.0
71	0	2.049309969	0	9.757018089	1.524585605	-5.825625896	1.0
[Neck]
65	0	2.231709957	0	-1.010088086	14.24128628	-87.6006546	1.0
66	0	2.231709957	0	0.1715063453	13.72381878	-87.64437866	1.0
67	0	2.231709957	0	-0.0702341646	13.10915184	-87.22910309	1.0
68	0	2.231709957	0	-0.3541893065	12.90198421	-87.6308136	1.0
69	0	2.231709957	0	-0.5684303641	12.86363888	-87.48416901	1.0
70	0	2.231709957	0	-2.995192528	13.13631439	-86.68310547	1.0
71	0	2.231709957	0	-2.652775049	16.40583611	-86.52063751	1.0
[Head]
65	0	1.413589954	0.1823999882	-7.674450874	7.74177599	-99.82223511	1.0
66	0	1.413589954	0.1823999882	-8.974819183	7.083934784	-99.53308105	1.0
67	0	1.413589954	0.1823999882	-8.043575287	6.553913116	-99.17868042	1.0
68	0	1.413589954	0.1823999882	-9.307977676	6.169851303	-98.52306366	1.0
69	0	1.413589954	0.1823999882	-11.12235069	5.985238552	-98.88455963	1.0
70	0	1.413589954	0.1823999882	-9.900792122	6.604380608	-98.41145325	1.0
71	0	1.413589954	0.1823999882	-12.66418362	3.607455015	-98.15863037	1.0
[LeftShoulder]
65	0.3649300039	1.825889945	-0.04271000251	-4.158886433	-10.28005791	13.09414101	1.0
66	0.3649300039	1.825889945	-0.04271000251	-4.435157776	-11.26459026	11.82237053	1.0
67	0.3649300039	1.825889945	-0.04271000251	-5.40309763	-8.661057472	9.895259857	1.0
68	0.3649300039	1.825889945	-0.04271000251	-5.061842442	-8.795624733	7.467931271	1.0
69	0.3649300039	1.825889945	-0.04271000251	-8.539182663	-9.989804268	4.700772285	1.0
70	0.3649300039	1.825889945	-0.04271000251	-13.36289978	-8.881061554	3.718511105	1.0
71	0.3649300039	1.825889945	-0.04271000251	-15.21165371	-9.742250443	2.883698463	1.0
[LeftArm]
65	1.24003005	0	0	16.257061	29.50668144	-56.27552032	1.0
66	1.24003005	0	0	19.36282539	27.2325058	-59.71307755	1.0
67	1.24003005	0	0	22.43595695	21.20158958	-62.89434052	1.0
68	1.24003005	0	0	23.99636269	15.80057812	-65.5605011	1.0
69	1.24003005	0	0	26.6132412	13.83622265	-67.84136963	1.0
70	1.24003005	0	0	34.24383545	10.94348907	-71.06963348	1.0
71	1.24003005	0	0	41.72141266	6.399084091	-74.52820587	1.0
[LeftForeArm]
65	2.847419977	0	0	15.89136791	-3.636152744	-35.62719345	1.0
66	2.847419977	0	0	12.95514107	-5.117632389	-30.63373375	1.0
67	2.847419977	0	0	9.095469475	-4.581703663	-25.04880714	1.0
68	2.847419977	0	0	7.089885235	-5.964943409	-18.66596794	1.0
69	2.847419977	0	0	0.9603312612	-8.263263702	-15.58452702	1.0
70	2.847419977	0	0	-2.258794308	-11.88493347	-11.78657246	1.0
71	2.847419977	0	0	-7.342364788	-18.23052216	-7.602496147	1.0
[LeftHand]
65	2.258270025	0	0	14.73443413	1.656383038	0.8842375875	1.0
66	2.258270025	0	0	11.54636383	0.1874449402	-0.7024579644	1.0
67	2.258270025	0	0	8.097156525	-1.078788519	-2.16422534	1.0
68	2.258270025	0	0	6.084751129	0.2977042198	-11.31965828	1.0
69	2.258270025	0	0	-0.08786628395	-2.205857754	-2.928303719	1.0
70	2.258270025	0	0	-3.439884663	-2.027345657	-3.766424417	1.0
71	2.258270025	0	0	-8.348442078	-8.907692909	-3.139581919	1.0
[RightShoulder]
65	-0.3646599948	1.825889945	-0.04271000251	-7.525803089	6.408418655	175.215744	1.0
66	-0.3646599948	1.825889945	-0.04271000251	-7.656590462	6.533704758	175.1673279	1.0
67	-0.3646599948	1.825889945	-0.04271000251	-6.863868713	7.520354271	176.3159027	1.0
68	-0.3646599948	1.825889945	-0.04271000251	-5.945859432	7.984357357	177.2307434	1.0
69	-0.3646599948	1.825889945	-0.04271000251	-6.924311638	8.154597282	177.2694092	1.0
70	-0.3646599948	1.825889945	-0.04271000251	-9.503948212	8.730487823	177.0302429	1.0
71	-0.3646599948	1.825889945	-0.04271000251	-9.971158028	8.994838715	176.8841248	1.0
[RightArm]
65	-1.24003005	0	0	70.64633179	25.41614914	-101.6185379	1.0
66	-1.24003005	0	0	69.88286591	21.44402504	-100.0003967	1.0
67	-1.24003005	0	0	69.15985107	18.54785347	-98.65487671	1.0
68	-1.24003005	0	0	69.10995483	17.81029892	-97.29433441	1.0
69	-1.24003005	0	0	69.0892334	17.65616035	-95.28620911	1.0
70	-1.24003005	0	0	70.36542511	15.86523914	-92.4586792	1.0
71	-1.24003005	0	0	68.15273285	14.23572159	-91.65753174	1.0
[RightForeArm]
65	-2.847419977	0	0	-106.7864609	76.3212738	53.25429535	1.0
66	-2.847419977	0	0	-73.25328064	79.70722961	89.54440308	1.0
67	-2.847419977	0	0	-26.66129875	74.36095428	139.0906677	1.0
68	-2.847419977	0	0	-9.067718506	61.50006104	158.4581299	1.0
69	-2.847419977	0	0	-0.6516085267	46.1492424	168.4593506	1.0
70	-2.847419977	0	0	3.334541321	29.34707642	172.8057098	1.0
71	-2.847419977	0	0	5.028690815	15.46027374	176.5812073	1.0
[RightHand]
65	-2.258270025	0	0	7.476026535	14.20697117	174.7201843	1.0
66	-2.258270025	0	0	6.347579002	15.39399815	174.2733765	1.0
67	-2.258270025	0	0	4.196860313	15.88366032	173.8862305	1.0
68	-2.258270025	0	0	2.965415955	15.63679886	173.8268585	1.0
69	-2.258270025	0	0	3.413890123	14.79789925	173.3600311	1.0
70	-2.258270025	0	0	4.355374813	12.37009907	172.003479	1.0
71	-2.258270025	0	0	4.841329098	7.841025829	170.5734253	1.0
[LeftUpLeg]
65	0.9119900465	0	0	13.15372467	-9.751324654	89.67100525	1.0
66	0.9119900465	0	0	12.65115166	-11.66111183	90.60394287	1.0
67	0.9119900465	0	0	8.509338379	-5.916181564	90.56188202	1.0
68	0.9119900465	0	0	0.1387863755	-1.081283092	89.12895203	1.0
69	0.9119900465	0	0	-6.880126953	-5.166325092	88.40028381	1.0
70	0.9119900465	0	0	-13.10760021	-6.717014313	87.73284912	1.0
71	0.9119900465	0	0	-17.23329353	-2.033914566	86.46321869	1.0
[LeftLeg]
65	0	-4.371409893	0	20.18651772	2.779155731	95.73579407	1.0
66	0	-4.371409893	0	15.43775272	1.183538437	89.88015747	1.0
67	0	-4.371409893	0	17.30091858	-2.189283848	91.02778625	1.0
68	0	-4.371409893	0	28.35319328	-10.94353485	87.90559387	1.0
69	0	-4.371409893	0	37.37562943	-9.025597572	81.31702423	1.0
70	0	-4.371409893	0	44.99908447	-10.12103748	74.03410339	1.0
71	0	-4.371409893	0	48.48882294	-13.47493458	69.61029053	1.0
[LeftFoot]
65	0	-3.918009996	0	49.6145668	71.50178528	100.6793442	1.0
66	0	-3.918009996	0	63.21954346	74.29971313	117.4171524	1.0
67	0	-3.918009996	0	46.4309845	75.53262329	100.9009247	1.0
68	0	-3.918009996	0	63.0701828	75.75746155	123.3625488	1.0
69	0	-3.918009996	0	78.52451324	69.02639771	145.2107544	1.0
70	0	-3.918009996	0	89.18806458	62.50085449	160.8101349	1.0
71	0	-3.918009996	0	90.23692322	59.90432739	161.6494751	1.0
[LeftToeBase]
65	0	-0.5927900076	1.367989898	0	0	0	1.0
66	0	-0.5927900076	1.367989898	0	0	0	1.0
67	0	-0.5927900076	1.367989898	0	0	0	1.0
68	0	-0.5927900076	1.367989898	0	0	0	1.0
69	0	-0.5927900076	1.367989898	0	0	0	1.0
70	0	-0.5927900076	1.367989898	0	0	0	1.0
71	0	-0.5927900076	1.367989898	0	0	0	1.0
[RightUpLeg]
65	-0.9119900465	0	0	7.334028721	-20.99935532	92.37804413	1.0
66	-0.9119900465	0	0	0.9996328354	-20.37628365	93.00050354	1.0
67	-0.9119900465	0	0	-6.929443359	-20.60726166	94.40128326	1.0
68	-0.9119900465	0	0	-10.73584175	-24.73476028	92.05586243	1.0
69	-0.9119900465	0	0	-27.51000214	-24.20495605	99.05382538	1.0
70	-0.9119900465	0	0	-35.62770081	-22.75153542	99.56092072	1.0
71	-0.9119900465	0	0	-39.40544128	-21.5624485	98.72520447	1.0
[RightLeg]
65	0	-4.371409893	0	-7.269853115	-1.812037826	91.71251678	1.0
66	0	-4.371409893	0	1.619815111	-9.268829346	91.89798737	1.0
67	0	-4.371409893	0	10.32176876	-11.99094009	87.455513	1.0
68	0	-4.371409893	0	-2.03998971	29.13751793	83.90402222	1.0
69	0	-4.371409893	0	29.1056366	-1.695388913	77.02520752	1.0
70	0	-4.371409893	0	37.03849792	1.110109806	75.28237915	1.0
71	0	-4.371409893	0	38.21569443	1.551206589	75.76872253	1.0
[RightFoot]
65	0	-3.918009996	0	57.77885056	76.68505096	98.84174347	1.0
66	0	-3.918009996	0	42.82088089	77.47431946	86.91392517	1.0
67	0	-3.918009996	0	41.08410645	78.14476776	86.38134766	1.0
68	0	-3.918009996	0	111.3231125	52.34504318	165.0646057	1.0
69	0	-3.918009996	0	126.3046799	50.27027512	189.5196075	1.0
70	0	-3.918009996	0	126.4101334	50.00725937	189.926178	1.0
71	0	-3.918009996	0	126.6215286	48.64680099	188.3793182	1.0
[RightToeBase]
65	0	-0.5927900076	1.367989898	0	0	0	1.0
66	0	-0.5927900076	1.367989898	0	0	0	1.0
67	0	-0.5927900076	1.367989898	0	0	0	1.0
68	0	-0.5927900076	1.367989898	0	0	0	1.0
69	0	-0.5927900076	1.367989898	0	0	0	1.0
70	0	-0.5927900076	1.367989898	0	0	0	1.0
71	0	-0.5927900076	1.367989898	0	0	0	1.0
[EndOfFile]
